<svg xmlns="http://www.w3.org/2000/svg" width="24" height="24" fill="none" viewBox="0 0 24 24">
  <path stroke="currentColor" stroke-linecap="round" stroke-linejoin="round" d="M12 8C9.79086 8 8 9.79086 8 12C8 12.7286 8.19479 13.4117 8.53513 14M12 8C14.2091 8 16 9.79086 16 12C16 13.0144 15.6224 13.9407 15 14.6458M12 8H20.0645M15 14.6458C14.2671 15.4762 13.1947 16 12 16C10.5194 16 9.22675 15.1956 8.53513 14M15 14.6458L10.7394 20.9124M8.53513 14L4.36907 7.22607M4.36907 7.22607C3.50156 8.60982 3 10.2463 3 12C3 16.5427 6.36566 20.2994 10.7394 20.9124M4.36907 7.22607C5.9604 4.68775 8.7831 3 12 3C16.9706 3 21 7.02944 21 12C21 16.9706 16.9706 21 12 21C11.5722 21 11.1513 20.9702 10.7394 20.9124"/>
</svg>
