<svg xmlns="http://www.w3.org/2000/svg" width="1120" height="424" viewBox="0 0 1120 424" role="img" aria-label="各样本 token 消耗">
<style>
text{font-family:Inter,Arial,sans-serif;fill:#17202a} .muted{fill:#5f6b7a} .title{font-size:26px;font-weight:800} .subtitle{font-size:14px} .label{font-size:13px}.value{font-size:13px;font-weight:700}.axis{stroke:#dce3ea;stroke-width:1}.bar-bg{fill:#edf1f5}
</style>
<rect width="100%" height="100%" rx="8" fill="#ffffff"/>
<text x="24" y="36" class="title">各样本 token 消耗</text>
<text x="24" y="62" class="subtitle muted">在线 VLM 消耗 token；离线 replay 和本地 recall / segment 为 0 model token。</text>
<line x1="230" y1="78" x2="970" y2="78" class="axis"/>
<text x="24" y="111" class="label">5554 Display</text>
<rect x="230" y="96" width="740" height="20" rx="5" class="bar-bg"/>
<rect x="230" y="96" width="481.1" height="20" rx="5" fill="#0b6bcb"/>
<text x="984" y="111" class="value">31,038 tokens</text>
<text x="24" y="128" class="label muted">3 calls</text>
<text x="24" y="153" class="label">5556 Network</text>
<rect x="230" y="138" width="740" height="20" rx="5" class="bar-bg"/>
<rect x="230" y="138" width="273.9" height="20" rx="5" fill="#0b6bcb"/>
<text x="984" y="153" class="value">17,670 tokens</text>
<text x="24" y="170" class="label muted">2 calls</text>
<text x="24" y="195" class="label">5556 Display</text>
<rect x="230" y="180" width="740" height="20" rx="5" class="bar-bg"/>
<rect x="230" y="180" width="359.8" height="20" rx="5" fill="#0b6bcb"/>
<text x="984" y="195" class="value">23,209 tokens</text>
<text x="24" y="212" class="label muted">4 calls</text>
<text x="24" y="237" class="label">5554 Display v2</text>
<rect x="230" y="222" width="740" height="20" rx="5" class="bar-bg"/>
<rect x="230" y="222" width="243.1" height="20" rx="5" fill="#0b6bcb"/>
<text x="984" y="237" class="value">15,680 tokens</text>
<text x="24" y="254" class="label muted">3 calls</text>
<text x="24" y="279" class="label">5556 Clock</text>
<rect x="230" y="264" width="740" height="20" rx="5" class="bar-bg"/>
<rect x="230" y="264" width="151.8" height="20" rx="5" fill="#0b6bcb"/>
<text x="984" y="279" class="value">9,793 tokens</text>
<text x="24" y="296" class="label muted">2 calls</text>
<text x="24" y="321" class="label">5554 Recall Guidance</text>
<rect x="230" y="306" width="740" height="20" rx="5" class="bar-bg"/>
<rect x="230" y="306" width="740.0" height="20" rx="5" fill="#99621b"/>
<text x="984" y="321" class="value">47,737 tokens</text>
<text x="24" y="338" class="label muted">3 calls</text>
<text x="24" y="363" class="label">5556 Recall Guidance</text>
<rect x="230" y="348" width="740" height="20" rx="5" class="bar-bg"/>
<rect x="230" y="348" width="403.8" height="20" rx="5" fill="#99621b"/>
<text x="984" y="363" class="value">26,051 tokens</text>
<text x="24" y="380" class="label muted">2 calls</text>
</svg>