<svg xmlns="http://www.w3.org/2000/svg" width="1120" height="392" viewBox="0 0 1120 392" role="img" aria-label="已记录的逐步 token 拆分">
<style>
text{font-family:Inter,Arial,sans-serif;fill:#17202a}.muted{fill:#5f6b7a}.title{font-size:26px;font-weight:800}.subtitle{font-size:14px}.label{font-size:13px}.value{font-size:13px;font-weight:700}.bar-bg{fill:#edf1f5}
</style>
<rect width="100%" height="100%" rx="8" fill="#ffffff"/>
<text x="24" y="36" class="title">已记录的逐步 token 拆分</text>
<text x="24" y="62" class="subtitle muted">只有 RunLog 记录到步骤 token 的样本会拆分；其余只展示总量。</text>
<text x="24" y="113" class="label">5554 Display</text>
<rect x="230" y="98" width="735" height="22" rx="5" class="bar-bg"/>
<rect x="230.0" y="98" width="170.3" height="22" rx="3" fill="#0b6bcb"/>
<rect x="400.3" y="98" width="248.5" height="22" rx="3" fill="#147a52"/>
<rect x="648.7" y="98" width="316.3" height="22" rx="3" fill="#99621b"/>
<text x="24" y="132" class="label muted">scroll 7,191 / click 10,492 / finish 13,355</text>
<text x="979" y="113" class="value">31,038 tokens</text>
<text x="24" y="163" class="label">5556 Network</text>
<rect x="230" y="148" width="735" height="22" rx="5" class="bar-bg"/>
<rect x="230.0" y="148" width="174.5" height="22" rx="3" fill="#0b6bcb"/>
<rect x="404.5" y="148" width="244.0" height="22" rx="3" fill="#147a52"/>
<text x="24" y="182" class="label muted">click 7,368 / finish 10,302</text>
<text x="979" y="163" class="value">17,670 tokens</text>
<text x="24" y="213" class="label">5556 Display</text>
<rect x="230" y="198" width="735" height="22" rx="5" class="bar-bg"/>
<rect x="230" y="198" width="549.6" height="22" rx="5" fill="#0b6bcb"/>
<text x="24" y="232" class="label muted">未记录步骤拆分</text>
<text x="979" y="213" class="value">23,209 tokens</text>
<text x="24" y="263" class="label">5554 Display v2</text>
<rect x="230" y="248" width="735" height="22" rx="5" class="bar-bg"/>
<rect x="230" y="248" width="371.3" height="22" rx="5" fill="#0b6bcb"/>
<text x="24" y="282" class="label muted">未记录步骤拆分</text>
<text x="979" y="263" class="value">15,680 tokens</text>
<text x="24" y="313" class="label">5556 Clock</text>
<rect x="230" y="298" width="735" height="22" rx="5" class="bar-bg"/>
<rect x="230" y="298" width="231.9" height="22" rx="5" fill="#0b6bcb"/>
<text x="24" y="332" class="label muted">未记录步骤拆分</text>
<text x="979" y="313" class="value">9,793 tokens</text>
</svg>