<svg xmlns="http://www.w3.org/2000/svg" width="1120" height="492" viewBox="0 0 1120 492" role="img" aria-label="已记录的本地步骤用时拆分">
<style>
text{font-family:Inter,Arial,sans-serif;fill:#17202a}.muted{fill:#5f6b7a}.title{font-size:26px;font-weight:800}.subtitle{font-size:14px}.label{font-size:13px}.value{font-size:13px;font-weight:700}.bar-bg{fill:#edf1f5}
</style>
<rect width="100%" height="100%" rx="8" fill="#ffffff"/>
<text x="24" y="36" class="title">已记录的本地步骤用时拆分</text>
<text x="24" y="62" class="subtitle muted">已记录 phase 数据的 replay / recall 样本按步骤拆分。</text>
<text x="24" y="113" class="label">5554 Display replay</text>
<rect x="230" y="98" width="735" height="22" rx="5" class="bar-bg"/>
<rect x="230.0" y="98" width="179.4" height="22" rx="3" fill="#0b6bcb"/>
<rect x="409.4" y="98" width="142.4" height="22" rx="3" fill="#147a52"/>
<rect x="551.8" y="98" width="110.0" height="22" rx="3" fill="#99621b"/>
<rect x="661.8" y="98" width="71.0" height="22" rx="3" fill="#7c3aed"/>
<text x="24" y="132" class="label muted">open_app 2,535 / scroll 2,012 / click 1,554 / finish 1,003</text>
<text x="979" y="113" class="value">7,105 ms</text>
<text x="24" y="163" class="label">5556 Network replay</text>
<rect x="230" y="148" width="735" height="22" rx="5" class="bar-bg"/>
<rect x="230.0" y="148" width="164.1" height="22" rx="3" fill="#0b6bcb"/>
<rect x="394.1" y="148" width="102.3" height="22" rx="3" fill="#147a52"/>
<rect x="496.4" y="148" width="71.0" height="22" rx="3" fill="#99621b"/>
<text x="24" y="182" class="label muted">open_app 2,319 / click 1,445 / finish 1,003</text>
<text x="979" y="163" class="value">4,768 ms</text>
<text x="24" y="213" class="label">5556 Display replay</text>
<rect x="230" y="198" width="735" height="22" rx="5" class="bar-bg"/>
<rect x="230" y="198" width="735.0" height="22" rx="5" fill="#147a52"/>
<text x="24" y="232" class="label muted">未记录步骤拆分</text>
<text x="979" y="213" class="value">10,384 ms</text>
<text x="24" y="263" class="label">5554 Display v2 replay</text>
<rect x="230" y="248" width="735" height="22" rx="5" class="bar-bg"/>
<rect x="230" y="248" width="403.9" height="22" rx="5" fill="#147a52"/>
<text x="24" y="282" class="label muted">未记录步骤拆分</text>
<text x="979" y="263" class="value">5,706 ms</text>
<text x="24" y="313" class="label">5556 Clock replay</text>
<rect x="230" y="298" width="735" height="22" rx="5" class="bar-bg"/>
<rect x="230" y="298" width="211.1" height="22" rx="5" fill="#147a52"/>
<text x="24" y="332" class="label muted">未记录步骤拆分</text>
<text x="979" y="313" class="value">2,983 ms</text>
<text x="24" y="363" class="label">5554 UDEG recall E2E</text>
<rect x="230" y="348" width="735" height="22" rx="5" class="bar-bg"/>
<rect x="230.0" y="348" width="36.7" height="22" rx="3" fill="#0b6bcb"/>
<rect x="266.7" y="348" width="30.9" height="22" rx="3" fill="#147a52"/>
<rect x="297.6" y="348" width="8.9" height="22" rx="3" fill="#99621b"/>
<rect x="306.5" y="348" width="360.8" height="22" rx="3" fill="#7c3aed"/>
<rect x="667.4" y="348" width="85.1" height="22" rx="3" fill="#5f6b7a"/>
<rect x="752.4" y="348" width="4.3" height="22" rx="3" fill="#94a3b8"/>
<text x="24" y="382" class="label muted">observe_before 518 / register_child 437 / recall 126 / parent_run 5,098 / post_run_settle 1,202 / observe_after 61</text>
<text x="979" y="363" class="value">7,478 ms</text>
<text x="24" y="413" class="label">5556 segment_hit E2E</text>
<rect x="230" y="398" width="735" height="22" rx="5" class="bar-bg"/>
<rect x="230.0" y="398" width="9.3" height="22" rx="3" fill="#0b6bcb"/>
<rect x="239.3" y="398" width="37.9" height="22" rx="3" fill="#147a52"/>
<rect x="277.2" y="398" width="185.5" height="22" rx="3" fill="#99621b"/>
<rect x="462.7" y="398" width="227.6" height="22" rx="3" fill="#7c3aed"/>
<rect x="690.4" y="398" width="85.2" height="22" rx="3" fill="#5f6b7a"/>
<rect x="775.5" y="398" width="9.6" height="22" rx="3" fill="#94a3b8"/>
<text x="24" y="432" class="label muted">observe_before 131 / register_child 536 / recall 2,621 / parent_run 3,216 / post_run_settle 1,203 / observe_after 135</text>
<text x="979" y="413" class="value">7,854 ms</text>
</svg>